**ABCDEFGHIJKLMNOPQRSTUVWXYZabcdefghijklmnopqrstuvwxyz**************************
**PARASOLID !"#$%&'()*+,-./:;<=>?@[\]^_`{|}~0123456789**************************
**PART1;
MC=x86;
MC_MODEL=x86 Family 15 Model 2 Stepping 9, GenuineIntel;
MC_ID=unknown;
OS=Windows_NT;
OS_RELEASE=unknown;
FRU=Parasolid Version 15.1, build 242,  7- 8-2004;
APPL=SolidWorks 2005-2004231;
SITE=;
USER=unknown;
FORMAT=text;
GUISE=transmit;
KEY=ell_20_80_(80_200)_i;
FILE=ell_20_80_(80_200)_i.x_t;
DATE=Wed Jun 13 10:38:31 2007;
**PART2;
SCH=SCH_1501242_15102;
USFLD_SIZE=0;
**PART3;
**END_OF_HEADER*****************************************************************
T51 : TRANSMIT FILE created by modeller version 150124217 SCH_1100000_110040 10
 1 7 2 3 0 0 0 0 0 1e3 1e-8 0 0 0 1 0 1 4 81 1 2 7 5 1 0 0 0 0 0 70 3 0 1 0 0 4
 1 20 4 6 6 1 T11 4 5 0 1 7 8 1 9 0 0 0 12 7 103 10 11 0 0 0 0 1e3 1e-8 4 12 0 1
 0 1 1 13 14 15 0 16 17 0 100 8 6 4 0 0 1 0 0 0 1 0 0 0 1 0 0 0 1 0 ?11 9 3 0 1
 12 18 1 19 4 0 0 12 12 63 20 21 0 0 0 0 1e3 1e-8 9 22 7 1 0 1 1 23 24 25 0 26 2
7 0 100 18 4 9 0 0 1 0 0 0 1 0 0 0 1 0 0 0 1 0 ?11 19 1 0 1 22 28 1 0 9 0 0 12 2
2 237 29 30 0 0 0 0 1e3 1e-8 19 31 12 1 0 1 1 32 33 34 35 36 37 38 100 28 2 19 0
 0 1 0 0 0 1 0 0 0 1 0 0 0 1 0 ?81 1 29 237 5 22 0 0 0 0 39 70 30 0 22 0 0 4 3 2
0 4 40 40 1 T13 32 90 0 22 0 41 0 0 42 0 50 33 89 0 41 43 0 0 +0 0 -3 -1 0 0 0 0
 1 30 34 85 0 44 45 0 0 +0 0 -3 0 0 1 29 35 23 0 38 46 0 0 .8 -3 19 36 24 0 22 4
2 0 47 V16 37 70 0 ?48 0 49 50 0 0 22 18 38 22 0 51 0 52 35 ?22 17 51 0 53 54 55
 38 48 37 0 56 -18 52 20 0 57 38 58 46 ?22 17 57 0 59 60 61 52 62 49 0 63 -18 58
 18 0 64 52 65 66 ?22 29 46 21 0 52 66 35 2 .8 -3 29 66 19 0 58 67 46 2 0 -3 29
 67 17 0 65 68 66 0 0 -3 18 65 16 0 69 58 70 67 ?22 29 68 66 0 70 71 67 0 .8 0 1
8 70 57 0 48 65 72 68 ?22 29 71 67 0 72 73 68 2 .8 0 18 72 58 0 62 70 74 71 ?22
 29 73 68 0 74 75 71 2 0 0 18 74 59 0 76 72 77 73 ?22 29 75 69 0 77 0 73 0 0 0 1
8 77 60 0 78 74 0 75 ?22 17 78 0 53 55 54 77 69 44 0 79 +15 53 80 0 55 41 0 17 5
5 0 53 51 78 70 80 81 0 82 -17 54 0 53 78 51 65 56 83 0 0 +17 69 0 84 85 79 65 7
8 44 0 86 -16 44 73 0 ?78 87 88 34 0 0 22 17 79 0 84 69 76 77 89 90 0 80 -15 84
 78 0 79 91 0 17 76 0 84 79 85 74 64 87 0 92 +17 89 0 93 94 80 74 79 90 0 0 +16
 90 49 0 ?89 95 81 96 0 0 22 17 80 0 93 89 82 77 55 81 0 0 +15 93 40 0 80 97 0 1
7 82 0 93 80 94 70 61 98 0 0 +16 81 53 0 ?80 90 99 100 0 0 22 16 99 177 0 ?101 8
1 102 103 0 0 22 30 100 65 0 81 103 96 0 +0 0 0 0 -1 0 32 103 203 0 99 104 100 1
05 +1 .4 -3 0 0 1 -1 0 0 .83 .23 30 96 64 0 90 100 106 0 +0 0 0 1 0 0 30 106 63
 0 95 96 107 0 +2 0 0 0 1 0 16 95 45 0 ?94 98 90 106 0 0 22 30 107 62 0 98 106 1
08 0 +0 .8 0 -1 0 0 16 98 41 0 ?82 83 95 107 0 0 22 30 108 5 0 83 107 109 0 +0 0
 -3 0 -1 0 16 83 4 0 ?54 110 98 108 0 0 22 30 109 8 0 110 108 111 0 +0 0 -3 1 0
 0 16 110 7 0 ?85 112 83 109 0 0 22 30 111 11 0 112 109 113 0 +2 0 -3 0 1 0 16 1
12 10 0 ?63 88 110 111 0 0 22 30 113 14 0 88 111 50 0 +0 .8 -3 -1 0 0 16 88 13 0
 ?60 44 112 113 0 0 22 30 50 82 0 37 113 114 0 +0 .8 -3 0 0 1 30 114 83 0 49 50
 45 0 +2 .8 -3 0 0 1 16 49 71 0 ?62 37 87 114 0 0 22 30 45 84 0 87 114 34 0 +2 0
 -3 0 0 1 16 87 72 0 ?76 49 44 45 0 0 22 17 62 0 115 92 63 72 57 49 0 94 +15 115
 76 0 92 116 0 17 92 0 115 64 62 74 94 95 0 89 -17 63 0 115 62 64 52 117 112 0 1
18 +17 94 0 93 82 89 72 92 95 0 61 +17 61 0 59 57 48 72 82 98 0 0 -15 59 74 0 61
 119 0 17 48 0 59 61 60 70 51 37 0 55 +17 60 0 59 48 57 38 118 88 0 0 +17 118 0
 120 117 56 52 60 88 0 0 -15 120 3 0 56 121 0 17 117 0 120 86 118 58 63 112 0 85
 -17 56 0 120 118 86 38 54 83 0 60 -17 86 0 120 56 117 65 85 110 0 54 -17 85 0 8
4 76 69 58 86 110 0 0 +14 121 1 122 ?97 91 123 32 124 +0 0 97 91 47 81 1 122 234
 125 121 126 0 127 128 129 14 97 39 128 ?130 121 131 32 132 -0 0 130 121 47 14 9
1 79 127 ?121 116 84 32 43 +0 0 121 116 47 15 123 172 0 101 121 120 50 124 2 0 1
21 132 133 0 +0 .8 -3 0 0 -1 -1 0 0 13 47 25 0 0 0 0 0 0 36 41 14 41 81 134 ?119
 0 53 32 33 +0 0 119 0 47 81 1 134 230 125 41 135 0 0 136 137 14 119 75 136 ?116
 41 59 32 133 +0 0 116 41 47 81 1 136 231 125 119 138 0 134 139 140 14 116 77 13
9 ?91 119 115 32 141 +0 0 91 119 47 50 133 86 0 119 124 141 0 +0 .8 -3 0 1 0 0 0
 1 50 141 87 0 116 133 43 0 +2 0 -3 1 0 0 0 0 -1 50 43 88 0 91 141 33 0 +0 0 -3
 0 -1 0 0 0 -1 81 1 139 232 125 116 142 0 136 127 143 80 1 125 0 144 8001 0 0 0
 0 3 5 0 0 FFFFTFTFFFFFFF2 81 1 142 226 145 116 0 139 138 146 147 81 1 127 233 1
25 91 148 0 139 122 149 83 3 143 .752941176470588 .752941176470588 .752941176470
588 81 1 148 220 145 91 0 127 150 135 151 83 3 149 .752941176470588 .75294117647
0588 .752941176470588 80 1 145 152 153 9000 1 1 1 1 1 1 1 1 FFFFTFTFFFFFFF1 81 1
 150 218 145 97 0 128 126 148 154 81 1 135 222 145 41 0 134 148 138 155 82 1 151
 -909639379 81 1 138 224 145 119 0 136 135 142 156 82 1 155 -909508307 82 1 156
 -909901523 81 1 128 235 125 97 150 0 122 157 158 81 1 126 216 145 121 0 122 0 1
50 159 82 1 154 676397359 82 1 159 676266287 81 1 157 236 125 130 146 0 128 0 16
0 83 3 158 .752941176470588 .752941176470588 .752941176470588 14 130 181 157 ?0
 97 161 32 162 -0 0 0 97 47 81 1 146 228 145 130 0 157 142 0 163 83 3 160 .75294
1176470588 .752941176470588 .752941176470588 82 1 163 1023607087 15 161 183 0 16
4 130 165 67 162 199 0 130 0 132 0 +103 0 0 1 .0637349397590362 50 132 61 0 97 1
62 124 0 +0 .8 0 0 0 -1 -1 0 0 17 164 0 161 164 164 0 101 99 0 0 -15 165 184 0 1
66 130 0 17 166 0 165 166 166 0 167 102 0 0 +17 167 0 131 167 167 0 166 102 0 0
 -16 102 179 0 ?166 99 0 104 0 0 22 32 104 204 0 102 0 103 0 +1 .4 0 0 0 1 -1 0
 0 .83 .23 15 131 165 0 167 97 93 17 101 0 123 101 101 0 164 99 0 0 +79 14 153 S
WEntUnchanged82 1 147 -909770451 79 15 144 SDL/TYSA_COLOUR83 3 140 .752941176470
588 .752941176470588 .752941176470588 83 3 137 .752941176470588 .752941176470588
 .752941176470588 83 3 129 .752941176470588 .752941176470588 .752941176470588 17
 64 0 115 63 92 58 76 87 0 117 -141 105 162 105 105 103 19 42 91 0 22 0 36 32 S7
4 20 40 3 0 146 157 29 0 0 0 0 0 0 0 0 0 0 0 0 0 0 0 0 0 80 1 5 168 169 8017 0 0
 0 0 0 0 0 0 TTTTTTTTTTTTTF3 84 13 39 box2D_ellipse79 13 169 SDL/TYSA_NAME81 1 2
0 63 5 12 0 0 0 0 170 70 21 0 12 0 0 4 3 20 4 171 171 1 T13 23 29 0 12 0 172 0 0
 173 0 67 24 28 0 172 174 0 0 +25 0 0 1 ?32 25 5 0 27 175 0 176 +1 .4 -3 0 0 1 -
1 1387778780781446e-31 0 .8 .2 19 26 7 0 12 173 0 177 V16 27 4 0 ?178 0 179 25 0
 0 12 17 178 0 180 178 178 0 181 27 0 0 +16 179 18 0 ?182 27 0 175 0 0 12 17 182
 0 183 182 182 0 184 179 0 0 +32 175 23 0 179 0 25 0 +1 .4 0 0 0 1 -1 1387778780
781446e-31 0 .8 .2 15 183 17 0 182 185 0 17 184 0 186 184 184 0 182 179 0 0 -15
 186 26 0 184 172 0 14 172 25 187 ?188 0 180 23 24 +0 0 188 0 177 81 1 187 60 12
5 172 189 0 0 190 191 14 188 1 190 ?185 172 192 23 174 -0 0 185 172 177 15 180 2
4 0 178 172 186 13 177 8 0 0 0 0 0 0 26 172 81 1 190 61 125 188 193 0 187 194 19
5 14 185 16 194 ?0 188 183 23 196 +0 0 0 188 177 15 192 3 0 181 188 0 50 174 2 0
 188 196 24 0 +1 .4 -3 0 0 1 1 0 0 50 196 22 0 185 0 174 0 +1 .4 0 0 0 1 1 0 0 1
7 181 0 192 181 181 0 178 27 0 0 -81 1 194 62 125 185 197 0 190 0 198 81 1 197 5
8 145 185 0 194 193 0 199 83 3 198 .752941176470588 .752941176470588 .7529411764
70588 81 1 193 56 145 188 0 190 189 197 200 82 1 199 -883228355 81 1 189 54 145
 172 0 187 0 193 201 82 1 200 -884670147 82 1 201 -882704067 83 3 195 .752941176
470588 .752941176470588 .752941176470588 83 3 191 .752941176470588 .752941176470
588 .752941176470588 19 173 30 0 12 0 26 23 S141 176 24 176 176 25 74 20 171 3 0
 197 194 20 0 0 0 0 0 0 0 0 0 0 0 0 0 0 0 0 0 84 7 170 ellipse81 1 10 103 5 7 0
 0 0 0 202 70 11 0 7 0 0 4 3 20 4 203 203 1 T13 13 29 0 7 0 204 0 0 205 0 67 14
 28 0 204 206 0 0 +15 0 0 1 ?32 15 5 0 17 207 0 208 +1 .4 -3 0 0 1 -1 0 0 .83 .2
3 19 16 7 0 7 205 0 209 V16 17 4 0 ?210 0 211 15 0 0 7 17 210 0 212 210 210 0 21
3 17 0 0 +16 211 18 0 ?214 17 215 207 0 0 7 17 214 0 216 214 214 0 217 211 0 0 +
16 215 49 0 ?218 211 219 220 0 0 7 32 207 23 0 211 220 15 0 +1 .4 0 0 0 1 -1 0 0
 .83 .23 32 220 71 0 215 221 207 222 +1 .4 -3 0 0 1 -1 1387778780781446e-31 0 .8
 .2 32 221 72 0 219 0 220 0 +1 .4 0 0 0 1 -1 1387778780781446e-31 0 .8 .2 141 22
2 223 222 222 220 67 223 68 0 224 0 225 0 +220 0 0 1 .05 14 224 55 226 ?0 227 22
8 13 223 -0 0 0 227 209 50 225 22 0 227 223 206 0 +1 .4 0 0 0 1 1 0 0 14 227 16
 229 ?224 230 231 13 225 +0 0 224 230 209 50 206 2 0 230 225 14 0 +1 .4 -3 0 0 1
 1 0 0 14 230 1 232 ?227 204 233 13 206 -0 0 227 204 209 81 1 232 100 125 230 23
4 0 235 229 236 14 204 25 235 ?230 0 212 13 14 +0 0 230 0 209 15 233 43 0 218 23
0 237 13 209 8 0 0 0 0 0 0 16 204 17 218 0 233 218 218 0 238 215 0 0 +15 237 3 0
 213 230 0 17 213 0 237 213 213 0 210 17 0 0 -17 238 0 228 238 238 0 218 215 0 0
 -15 228 58 0 238 224 239 15 239 59 0 240 224 0 17 240 0 239 240 240 0 241 219 0
 0 +17 241 0 231 241 241 0 240 219 0 0 -16 219 52 0 ?240 215 0 221 0 0 7 15 231
 38 0 241 227 216 15 216 17 0 214 227 0 81 1 235 99 125 204 242 0 0 232 243 15 2
12 24 0 210 204 244 15 244 26 0 217 204 0 17 217 0 244 217 217 0 214 211 0 0 -81
 1 242 97 145 204 0 235 234 0 245 83 3 243 .752941176470588 .752941176470588 .75
2941176470588 81 1 234 95 145 230 0 232 246 242 247 82 1 245 315556167 81 1 246
 93 145 227 0 229 248 234 249 82 1 247 313590087 81 1 229 101 125 227 246 0 232
 226 250 81 1 248 91 145 224 0 226 0 246 251 82 1 249 315031879 81 1 226 102 125
 224 248 0 229 0 252 82 1 251 319553863 83 3 252 .752941176470588 .7529411764705
88 .752941176470588 83 3 250 .752941176470588 .752941176470588 .752941176470588
 83 3 236 .752941176470588 .752941176470588 .752941176470588 19 205 30 0 7 0 16
 13 S141 208 14 208 208 15 74 20 203 3 0 242 226 10 0 0 0 0 0 0 0 0 0 0 0 0 0 0
 0 0 0 84 13 202 i_ellipse_ext74 20 6 1 0 2 0 0 0 0 0 0 0 0 0 0 0 0 0 0 0 0 0 0
 0 1 0 
