**ABCDEFGHIJKLMNOPQRSTUVWXYZabcdefghijklmnopqrstuvwxyz**************************
**PARASOLID !"#$%&'()*+,-./:;<=>?@[\]^_`{|}~0123456789**************************
**PART1;
MC=x86;
MC_MODEL=x86 Family 15 Model 2 Stepping 9, GenuineIntel;
MC_ID=unknown;
OS=Windows_NT;
OS_RELEASE=unknown;
FRU=Parasolid Version 15.0, build 235,  1-28-2004;
APPL=SolidWorks 2004-2004073;
SITE=;
USER=unknown;
FORMAT=text;
GUISE=transmit;
KEY=ell_rot_90;
FILE=ell_rot_90.x_t;
DATE=Sat Nov 05 16:11:04 2005;
**PART2;
SCH=SCH_1500235_15003;
USFLD_SIZE=0;
**PART3;
**END_OF_HEADER*****************************************************************
T51 : TRANSMIT FILE created by modeller version 150023517 SCH_1100000_110040 10
 1 5 2 3 0 0 0 0 0 1e3 1e-8 0 0 0 1 0 1 4 81 1 2 5 5 1 0 0 0 0 0 70 3 0 1 0 0 4
 1 20 4 6 6 1 T11 4 3 0 1 7 8 1 9 0 0 0 12 7 59 10 11 0 0 0 0 1e3 1e-8 4 12 0 1
 0 1 1 13 14 15 0 16 17 0 100 8 4 4 0 0 1 0 0 0 1 0 0 0 1 .5 .5 0 1 1 ?11 9 1 0
 1 12 18 1 0 4 0 0 12 12 183 19 20 0 0 0 0 1e3 1e-8 9 21 7 1 0 1 1 22 23 24 25 2
6 27 28 100 18 2 9 0 0 1 0 0 0 1 0 0 0 1 0 0 0 1 0 ?81 1 19 183 5 12 0 0 0 0 29
 70 20 0 12 0 0 4 3 20 4 30 30 1 T13 22 90 0 12 0 31 0 0 32 0 50 23 89 0 31 33 0
 0 +0 0 -3 -1 0 0 0 0 1 30 24 85 0 34 35 0 0 +0 0 -3 0 0 1 29 25 23 0 28 36 0 0
 1 -3 19 26 24 0 12 32 0 37 V16 27 70 0 ?38 0 39 40 0 0 12 18 28 22 0 41 0 42 25
 ?12 17 41 0 43 44 45 28 38 27 0 46 -18 42 20 0 47 28 48 36 ?12 17 47 0 49 50 51
 42 52 39 0 53 -18 48 18 0 54 42 55 56 ?12 29 36 21 0 42 56 25 1 1 -3 29 56 19 0
 48 57 36 1 0 -3 29 57 17 0 55 58 56 0 0 -3 18 55 16 0 59 48 60 57 ?12 29 58 66
 0 60 61 57 0 1 0 18 60 57 0 38 55 62 58 ?12 29 61 67 0 62 63 58 1 1 0 18 62 58
 0 52 60 64 61 ?12 29 63 68 0 64 65 61 1 0 0 18 64 59 0 66 62 67 63 ?12 29 65 69
 0 67 0 63 0 0 0 18 67 60 0 68 64 0 65 ?12 17 68 0 43 45 44 67 59 34 0 69 +15 43
 80 0 45 31 0 17 45 0 43 41 68 60 70 71 0 72 -17 44 0 43 68 41 55 46 73 0 0 +17
 59 0 74 75 69 55 68 34 0 76 -16 34 73 0 ?68 77 78 24 0 0 12 17 69 0 74 59 66 67
 79 80 0 70 -15 74 78 0 69 81 0 17 66 0 74 69 75 64 54 77 0 82 +17 79 0 83 84 70
 64 69 80 0 0 +16 80 49 0 ?79 85 71 86 0 0 12 17 70 0 83 79 72 67 45 71 0 0 +15
 83 40 0 70 87 0 17 72 0 83 70 84 60 51 88 0 0 +16 71 53 0 ?70 80 89 90 0 0 12 1
6 89 136 0 ?91 71 92 93 0 0 12 30 90 65 0 71 93 86 0 +0 0 0 0 -1 0 32 93 153 0 8
9 94 90 95 +.5 .5 -3 0 0 1 0 1 0 .35 .15 30 86 64 0 80 90 96 0 +0 0 0 1 0 0 30 9
6 63 0 85 86 97 0 +1 0 0 0 1 0 16 85 45 0 ?84 88 80 96 0 0 12 30 97 62 0 88 96 9
8 0 +0 1 0 -1 0 0 16 88 41 0 ?72 73 85 97 0 0 12 30 98 5 0 73 97 99 0 +0 0 -3 0
 -1 0 16 73 4 0 ?44 100 88 98 0 0 12 30 99 8 0 100 98 101 0 +0 0 -3 1 0 0 16 100
 7 0 ?75 102 73 99 0 0 12 30 101 11 0 102 99 103 0 +1 0 -3 0 1 0 16 102 10 0 ?53
 78 100 101 0 0 12 30 103 14 0 78 101 40 0 +0 1 -3 -1 0 0 16 78 13 0 ?50 34 102
 103 0 0 12 30 40 82 0 27 103 104 0 +0 1 -3 0 0 1 30 104 83 0 39 40 35 0 +1 1 -3
 0 0 1 16 39 71 0 ?52 27 77 104 0 0 12 30 35 84 0 77 104 24 0 +1 0 -3 0 0 1 16 7
7 72 0 ?66 39 34 35 0 0 12 17 52 0 105 82 53 62 47 39 0 84 +15 105 76 0 82 106 0
 17 82 0 105 54 52 64 84 85 0 79 -17 53 0 105 52 54 42 107 102 0 108 +17 84 0 83
 72 79 62 82 85 0 51 +17 51 0 49 47 38 62 72 88 0 0 -15 49 74 0 51 109 0 17 38 0
 49 51 50 60 41 27 0 45 +17 50 0 49 38 47 28 108 78 0 0 +17 108 0 110 107 46 42
 50 78 0 0 -15 110 3 0 46 111 0 17 107 0 110 76 108 48 53 102 0 75 -17 46 0 110
 108 76 28 44 73 0 50 -17 76 0 110 46 107 55 75 100 0 44 -17 75 0 74 66 59 48 76
 100 0 0 +14 111 1 112 ?87 81 113 22 114 +0 0 87 81 37 81 1 112 180 115 111 116
 0 117 118 119 14 87 39 118 ?120 111 121 22 122 -0 0 120 111 37 14 81 79 117 ?11
1 106 74 22 33 +0 0 111 106 37 15 113 131 0 91 111 110 50 114 2 0 111 122 123 0
 +0 1 -3 0 0 -1 -1 0 0 13 37 25 0 0 0 0 0 0 26 31 14 31 81 124 ?109 0 43 22 23 +
0 0 109 0 37 81 1 124 176 115 31 125 0 0 126 127 14 109 75 126 ?106 31 49 22 123
 +0 0 106 31 37 81 1 126 177 115 109 128 0 124 129 130 14 106 77 129 ?81 109 105
 22 131 +0 0 81 109 37 50 123 86 0 109 114 131 0 +0 1 -3 0 1 0 0 0 1 50 131 87 0
 106 123 33 0 +1 0 -3 1 0 0 0 0 -1 50 33 88 0 81 131 23 0 +0 0 -3 0 -1 0 0 0 -1
 81 1 129 178 115 106 132 0 126 117 133 80 1 115 0 134 8001 0 0 0 0 3 5 0 0 FFFF
TFTFFFFFFF2 81 1 132 172 135 106 0 129 128 136 137 81 1 117 179 115 81 138 0 129
 112 139 83 3 133 .752941176470588 .752941176470588 .752941176470588 81 1 138 16
6 135 81 0 117 140 125 141 83 3 139 .752941176470588 .752941176470588 .752941176
470588 80 1 135 142 143 9000 1 1 1 1 1 1 1 1 FFFFTFTFFFFFFF1 81 1 140 164 135 87
 0 118 116 138 144 81 1 125 168 135 31 0 124 138 128 145 82 1 141 917714 81 1 12
8 170 135 109 0 126 125 132 146 82 1 145 917714 82 1 146 917714 81 1 118 181 115
 87 140 0 112 147 148 81 1 116 162 135 111 0 112 0 140 149 82 1 144 4391013 82 1
 149 4391013 81 1 147 182 115 120 136 0 118 0 150 83 3 148 .752941176470588 .752
941176470588 .752941176470588 14 120 138 147 ?0 87 151 22 152 -0 0 0 87 37 81 1
 136 174 135 120 0 147 132 0 153 83 3 150 .752941176470588 .752941176470588 .752
941176470588 82 1 153 4391013 15 151 140 0 154 120 155 67 152 150 0 120 0 122 0
 +93 0 0 1 .0642857142857143 50 122 61 0 87 152 114 0 +0 1 0 0 0 -1 -1 0 0 17 15
4 0 151 154 154 0 91 89 0 0 -15 155 141 0 156 120 0 17 156 0 155 156 156 0 157 9
2 0 0 +17 157 0 121 157 157 0 156 92 0 0 -16 92 137 0 ?156 89 0 94 0 0 12 32 94
 154 0 92 0 93 0 +.5 .5 0 0 0 1 0 1 0 .35 .15 15 121 124 0 157 87 83 17 91 0 113
 91 91 0 154 89 0 0 +79 14 143 SWEntUnchanged82 1 137 917714 79 15 134 SDL/TYSA_
COLOUR83 3 130 .752941176470588 .752941176470588 .752941176470588 83 3 127 .7529
41176470588 .752941176470588 .752941176470588 83 3 119 .752941176470588 .7529411
76470588 .752941176470588 17 54 0 105 53 82 48 66 77 0 107 -141 95 152 95 95 93
 19 32 91 0 12 0 26 22 S74 20 30 3 0 136 147 19 0 0 0 0 0 0 0 0 0 0 0 0 0 0 0 0
 0 80 1 5 158 159 8017 0 0 0 0 0 0 0 0 TTTTTTTTTTTTTF3 84 5 29 box2D79 13 159 SD
L/TYSA_NAME81 1 10 59 5 7 0 0 0 0 160 70 11 0 7 0 0 4 3 20 4 161 161 1 T13 13 29
 0 7 0 162 0 0 163 0 67 14 28 0 162 164 0 0 +15 0 0 1 .0642857142857143 32 15 5
 0 17 165 0 166 +0 0 -3 0 0 1 0 1 0 .35 .15 19 16 7 0 7 163 0 167 V16 17 4 0 ?16
8 0 169 15 0 0 7 17 168 0 170 168 168 0 171 17 0 0 +16 169 18 0 ?172 17 0 165 0
 0 7 17 172 0 173 172 172 0 174 169 0 0 +32 165 23 0 169 0 15 0 +0 0 0 0 0 1 0 1
 0 .35 .15 15 173 17 0 172 175 0 17 174 0 176 174 174 0 172 169 0 0 -15 176 26 0
 174 162 0 14 162 25 177 ?178 0 170 13 14 +0 0 178 0 167 81 1 177 56 115 162 179
 0 0 180 181 14 178 1 180 ?175 162 182 13 164 -0 0 175 162 167 15 170 24 0 168 1
62 176 13 167 8 0 0 0 0 0 0 16 162 81 1 180 57 115 178 183 0 177 184 185 14 175
 16 184 ?0 178 173 13 186 +0 0 0 178 167 15 182 3 0 171 178 0 50 164 2 0 178 186
 14 0 +0 0 -3 0 0 1 1 0 0 50 186 22 0 175 0 164 0 +0 0 0 0 0 1 1 0 0 17 171 0 18
2 171 171 0 168 17 0 0 -81 1 184 58 115 175 187 0 180 0 188 81 1 187 54 135 175
 0 184 183 0 189 83 3 188 .752941176470588 .752941176470588 .752941176470588 81
 1 183 52 135 178 0 180 179 187 190 82 1 189 6357297 81 1 179 50 135 162 0 177 0
 183 191 82 1 190 6357297 82 1 191 6357297 83 3 185 .752941176470588 .7529411764
70588 .752941176470588 83 3 181 .752941176470588 .752941176470588 .7529411764705
88 19 163 30 0 7 0 16 13 S141 166 14 166 166 15 74 20 161 3 0 187 184 10 0 0 0 0
 0 0 0 0 0 0 0 0 0 0 0 0 0 84 7 160 ellipse74 20 6 1 0 2 0 0 0 0 0 0 0 0 0 0 0 0
 0 0 0 0 0 0 0 1 0 
