**ABCDEFGHIJKLMNOPQRSTUVWXYZabcdefghijklmnopqrstuvwxyz**************************
**PARASOLID !"#$%&'()*+,-./:;<=>?@[\]^_`{|}~0123456789**************************
**PART1;
MC=x86;
MC_MODEL=x86 Family 15 Model 2 Stepping 9, GenuineIntel;
MC_ID=unknown;
OS=Windows_NT;
OS_RELEASE=unknown;
FRU=Parasolid Version 15.1, build 242,  7- 8-2004;
APPL=SolidWorks 2005-2004231;
SITE=;
USER=unknown;
FORMAT=text;
GUISE=transmit;
KEY=sph285_04_i;
FILE=sph285_04_i.x_t;
DATE=Thu Jun 14 16:31:04 2007;
**PART2;
SCH=SCH_1501242_15102;
USFLD_SIZE=0;
**PART3;
**END_OF_HEADER*****************************************************************
T51 : TRANSMIT FILE created by modeller version 150124217 SCH_1100000_110040 10
 1 7 2 3 0 0 0 0 0 1e3 1e-8 0 0 0 1 0 1 4 81 1 2 7 5 1 0 0 0 0 0 70 3 0 1 0 0 4
 1 20 4 6 6 1 T11 4 5 0 1 7 8 1 9 0 0 0 12 7 103 10 11 0 0 0 0 1e3 1e-8 4 12 0 1
 0 1 1 13 14 15 0 16 17 0 100 8 6 4 0 0 1 0 0 0 1 0 0 0 1 0 0 0 1 0 ?11 9 3 0 1
 12 18 1 19 4 0 0 12 12 59 20 21 0 0 0 0 1e3 1e-8 9 22 7 1 0 1 1 23 24 25 0 26 2
7 0 100 18 4 9 0 0 1 0 0 0 1 0 0 0 1 0 0 0 1 0 ?11 19 1 0 1 22 28 1 0 9 0 0 12 2
2 234 29 30 0 0 0 0 1e3 1e-8 19 31 12 1 0 1 1 32 33 34 35 36 37 38 100 28 2 19 0
 0 1 0 0 0 1 0 0 0 1 0 0 0 1 0 ?81 1 29 234 5 22 0 0 0 0 39 70 30 0 22 0 0 4 3 2
0 4 40 40 1 T13 32 90 0 22 0 41 0 0 42 0 50 33 89 0 41 43 0 0 +0 0 -3 -1 0 0 0 0
 1 30 34 85 0 44 45 0 0 +0 0 -3 0 0 1 29 35 23 0 38 46 0 0 .6253 -3 19 36 24 0 2
2 42 0 47 V16 37 70 0 ?48 0 49 50 0 0 22 18 38 22 0 51 0 52 35 ?22 17 51 0 53 54
 55 38 48 37 0 56 -18 52 20 0 57 38 58 46 ?22 17 57 0 59 60 61 52 62 49 0 63 -18
 58 18 0 64 52 65 66 ?22 29 46 21 0 52 66 35 .6253 .6253 -3 29 66 19 0 58 67 46
 .6253 0 -3 29 67 17 0 65 68 66 0 0 -3 18 65 16 0 69 58 70 67 ?22 29 68 66 0 70
 71 67 0 .6253 0 18 70 57 0 48 65 72 68 ?22 29 71 67 0 72 73 68 .6253 .6253 0 18
 72 58 0 62 70 74 71 ?22 29 73 68 0 74 75 71 .6253 0 0 18 74 59 0 76 72 77 73 ?2
2 29 75 69 0 77 0 73 0 0 0 18 77 60 0 78 74 0 75 ?22 17 78 0 53 55 54 77 69 44 0
 79 +15 53 80 0 55 41 0 17 55 0 53 51 78 70 80 81 0 82 -17 54 0 53 78 51 65 56 8
3 0 0 +17 69 0 84 85 79 65 78 44 0 86 -16 44 73 0 ?78 87 88 34 0 0 22 17 79 0 84
 69 76 77 89 90 0 80 -15 84 78 0 79 91 0 17 76 0 84 79 85 74 64 87 0 92 +17 89 0
 93 94 80 74 79 90 0 0 +16 90 49 0 ?89 95 81 96 0 0 22 17 80 0 93 89 82 77 55 81
 0 0 +15 93 40 0 80 97 0 17 82 0 93 80 94 70 61 98 0 0 +16 81 53 0 ?80 90 99 100
 0 0 22 16 99 175 0 ?101 81 102 103 0 0 22 30 100 65 0 81 103 96 0 +0 0 0 0 -1 0
 31 103 201 0 99 104 100 0 +.31265 .31265 -3 0 0 1 1 0 0 .295 30 96 64 0 90 100
 105 0 +0 0 0 1 0 0 30 105 63 0 95 96 106 0 +.6253 0 0 0 1 0 16 95 45 0 ?94 98 9
0 105 0 0 22 30 106 62 0 98 105 107 0 +0 .6253 0 -1 0 0 16 98 41 0 ?82 83 95 106
 0 0 22 30 107 5 0 83 106 108 0 +0 0 -3 0 -1 0 16 83 4 0 ?54 109 98 107 0 0 22 3
0 108 8 0 109 107 110 0 +0 0 -3 1 0 0 16 109 7 0 ?85 111 83 108 0 0 22 30 110 11
 0 111 108 112 0 +.6253 0 -3 0 1 0 16 111 10 0 ?63 88 109 110 0 0 22 30 112 14 0
 88 110 50 0 +0 .6253 -3 -1 0 0 16 88 13 0 ?60 44 111 112 0 0 22 30 50 82 0 37 1
12 113 0 +0 .6253 -3 0 0 1 30 113 83 0 49 50 45 0 +.6253 .6253 -3 0 0 1 16 49 71
 0 ?62 37 87 113 0 0 22 30 45 84 0 87 113 34 0 +.6253 0 -3 0 0 1 16 87 72 0 ?76
 49 44 45 0 0 22 17 62 0 114 92 63 72 57 49 0 94 +15 114 76 0 92 115 0 17 92 0 1
14 64 62 74 94 95 0 89 -17 63 0 114 62 64 52 116 111 0 117 +17 94 0 93 82 89 72
 92 95 0 61 +17 61 0 59 57 48 72 82 98 0 0 -15 59 74 0 61 118 0 17 48 0 59 61 60
 70 51 37 0 55 +17 60 0 59 48 57 38 117 88 0 0 +17 117 0 119 116 56 52 60 88 0 0
 -15 119 3 0 56 120 0 17 116 0 119 86 117 58 63 111 0 85 -17 56 0 119 117 86 38
 54 83 0 60 -17 86 0 119 56 116 65 85 109 0 54 -17 85 0 84 76 69 58 86 109 0 0 +
14 120 1 121 ?97 91 122 32 123 +0 0 97 91 47 81 1 121 231 124 120 125 0 126 127
 128 14 97 39 127 ?129 120 130 32 131 -0 0 129 120 47 14 91 79 126 ?120 115 84 3
2 43 +0 0 120 115 47 15 122 170 0 101 120 119 50 123 2 0 120 131 132 0 +0 .6253
 -3 0 0 -1 -1 0 0 13 47 25 0 0 0 0 0 0 36 41 14 41 81 133 ?118 0 53 32 33 +0 0 1
18 0 47 81 1 133 227 124 41 134 0 0 135 136 14 118 75 135 ?115 41 59 32 132 +0 0
 115 41 47 81 1 135 228 124 118 137 0 133 138 139 14 115 77 138 ?91 118 114 32 1
40 +0 0 91 118 47 50 132 86 0 118 123 140 0 +0 .6253 -3 0 1 0 0 0 1 50 140 87 0
 115 132 43 0 +.6253 0 -3 1 0 0 0 0 -1 50 43 88 0 91 140 33 0 +0 0 -3 0 -1 0 0 0
 -1 81 1 138 229 124 115 141 0 135 126 142 80 1 124 0 143 8001 0 0 0 0 3 5 0 0 F
FFFTFTFFFFFFF2 81 1 141 223 144 115 0 138 137 145 146 81 1 126 230 124 91 147 0
 138 121 148 83 3 142 .752941176470588 .752941176470588 .752941176470588 81 1 14
7 217 144 91 0 126 149 134 150 83 3 148 .752941176470588 .752941176470588 .75294
1176470588 80 1 144 151 152 9000 1 1 1 1 1 1 1 1 FFFFTFTFFFFFFF1 81 1 149 215 14
4 97 0 127 125 147 153 81 1 134 219 144 41 0 133 147 137 154 82 1 150 -139270477
5 81 1 137 221 144 118 0 135 134 141 155 82 1 154 -1392573703 82 1 155 -13929669
19 81 1 127 232 124 97 149 0 121 156 157 81 1 125 213 144 120 0 121 0 149 158 82
 1 153 -1396047098 82 1 158 -1399520506 81 1 156 233 124 129 145 0 127 0 159 83
 3 157 .752941176470588 .752941176470588 .752941176470588 14 129 179 156 ?0 97 1
60 32 161 -0 0 0 97 47 81 1 145 225 144 129 0 156 141 0 162 83 3 159 .7529411764
70588 .752941176470588 .752941176470588 82 1 162 -480115962 15 160 181 0 163 129
 164 51 161 197 0 129 0 131 0 +.31265 .31265 -3 0 0 1 .295 1 0 0 50 131 61 0 97
 161 123 0 +0 .6253 0 0 0 -1 -1 0 0 17 163 0 160 163 163 0 101 99 0 0 -15 164 18
2 0 165 129 0 17 165 0 164 165 165 0 166 102 0 0 +17 166 0 130 166 166 0 165 102
 0 0 -16 102 177 0 ?165 99 0 104 0 0 22 31 104 202 0 102 0 103 0 +.31265 .31265
 0 0 0 1 1 0 0 .295 15 130 163 0 166 97 93 17 101 0 122 101 101 0 163 99 0 0 +79
 14 152 SWEntUnchanged82 1 146 -1392835847 79 15 143 SDL/TYSA_COLOUR83 3 139 .75
2941176470588 .752941176470588 .752941176470588 83 3 136 .752941176470588 .75294
1176470588 .752941176470588 83 3 128 .752941176470588 .752941176470588 .75294117
6470588 17 64 0 114 63 92 58 76 87 0 116 -19 42 91 0 22 0 36 32 S74 20 40 3 0 14
5 156 29 0 0 0 0 0 0 0 0 0 0 0 0 0 0 0 0 0 80 1 5 167 168 8017 0 0 0 0 0 0 0 0 T
TTTTTTTTTTTTF3 84 9 39 box2D_sph79 13 168 SDL/TYSA_NAME81 1 20 59 5 12 0 0 0 0 1
69 70 21 0 12 0 0 4 3 20 4 170 170 1 T13 23 29 0 12 0 171 0 0 172 0 51 24 28 0 1
71 173 0 0 +.31265 .31265 -3 0 0 1 .285 1 0 0 31 25 5 0 27 174 0 0 +.31265 .3126
5 -3 0 0 1 1 0 0 .285 19 26 7 0 12 172 0 175 V16 27 4 0 ?176 0 177 25 0 0 12 17
 176 0 178 176 176 0 179 27 0 0 +16 177 18 0 ?180 27 0 174 0 0 12 17 180 0 181 1
80 180 0 182 177 0 0 +31 174 23 0 177 0 25 0 +.31265 .31265 0 0 0 1 1 0 0 .285 1
5 181 17 0 180 183 0 17 182 0 184 182 182 0 180 177 0 0 -15 184 26 0 182 171 0 1
4 171 25 185 ?186 0 178 23 24 +0 0 186 0 175 81 1 185 56 124 171 187 0 0 188 189
 14 186 1 188 ?183 171 190 23 173 -0 0 183 171 175 15 178 24 0 176 171 184 13 17
5 8 0 0 0 0 0 0 26 171 81 1 188 57 124 186 191 0 185 192 193 14 183 16 192 ?0 18
6 181 23 194 +0 0 0 186 175 15 190 3 0 179 186 0 50 173 2 0 186 194 24 0 +.31265
 .31265 -3 0 0 1 1 0 0 50 194 22 0 183 0 173 0 +.31265 .31265 0 0 0 1 1 0 0 17 1
79 0 190 179 179 0 176 27 0 0 -81 1 192 58 124 183 195 0 188 0 196 81 1 195 54 1
44 183 0 192 191 0 197 83 3 196 .752941176470588 .752941176470588 .7529411764705
88 81 1 191 52 144 186 0 188 187 195 198 82 1 197 -912063894 81 1 187 50 144 171
 0 185 0 191 199 82 1 198 -913505686 82 1 199 -911539606 83 3 193 .7529411764705
88 .752941176470588 .752941176470588 83 3 189 .752941176470588 .752941176470588
 .752941176470588 19 172 30 0 12 0 26 23 S74 20 170 3 0 195 192 20 0 0 0 0 0 0 0
 0 0 0 0 0 0 0 0 0 0 84 3 169 sph81 1 10 103 5 7 0 0 0 0 200 70 11 0 7 0 0 4 3 2
0 4 201 201 1 T13 13 29 0 7 0 202 0 0 203 0 51 14 28 0 202 204 0 0 +.31265 .3126
5 -3 0 0 1 .295 1 0 0 31 15 5 0 17 205 0 0 +.31265 .31265 -3 0 0 1 1 0 0 .295 19
 16 7 0 7 203 0 206 V16 17 4 0 ?207 0 208 15 0 0 7 17 207 0 209 207 207 0 210 17
 0 0 +16 208 18 0 ?211 17 212 205 0 0 7 17 211 0 213 211 211 0 214 208 0 0 +16 2
12 49 0 ?215 208 216 217 0 0 7 31 205 23 0 208 217 15 0 +.31265 .31265 0 0 0 1 1
 0 0 .295 31 217 71 0 212 218 205 0 +.31265 .31265 -3 0 0 1 1 0 0 .285 31 218 72
 0 216 0 217 0 +.31265 .31265 0 0 0 1 1 0 0 .285 16 216 52 0 ?219 212 0 218 0 0
 7 17 219 0 220 219 219 0 221 216 0 0 +15 220 59 0 219 222 0 17 221 0 223 221 22
1 0 219 216 0 0 -15 223 38 0 221 224 213 14 224 16 225 ?222 226 223 13 227 +0 0
 222 226 206 15 213 17 0 211 224 0 81 1 225 101 124 224 228 0 229 230 231 14 222
 55 230 ?0 224 232 13 233 -0 0 0 224 206 14 226 1 229 ?224 202 234 13 204 -0 0 2
24 202 206 50 227 22 0 224 233 204 0 +.31265 .31265 0 0 0 1 1 0 0 13 206 8 0 0 0
 0 0 0 16 202 14 202 25 235 ?226 0 209 13 14 +0 0 226 0 206 81 1 235 99 124 202
 236 0 0 229 237 15 209 24 0 207 202 238 15 238 26 0 214 202 0 17 214 0 238 214
 214 0 211 208 0 0 -81 1 236 97 144 202 0 235 239 0 240 81 1 229 100 124 226 239
 0 235 225 241 83 3 237 .752941176470588 .752941176470588 .752941176470588 81 1
 239 95 144 226 0 229 242 236 243 83 3 241 .752941176470588 .752941176470588 .75
2941176470588 81 1 242 93 144 222 0 230 228 239 244 82 1 243 -490339876 81 1 230
 102 124 222 242 0 225 0 245 81 1 228 91 144 224 0 225 0 242 246 82 1 244 -49237
1492 82 1 246 -488898084 83 3 245 .752941176470588 .752941176470588 .75294117647
0588 82 1 240 -488373796 51 233 68 0 222 0 227 0 +.31265 .31265 -3 0 0 1 .285 1
 0 0 50 204 2 0 226 227 14 0 +.31265 .31265 -3 0 0 1 1 0 0 15 234 43 0 215 226 2
47 17 215 0 234 215 215 0 248 212 0 0 +15 247 3 0 210 226 0 17 210 0 247 210 210
 0 207 17 0 0 -17 248 0 232 248 248 0 215 212 0 0 -15 232 58 0 248 222 220 83 3
 231 .752941176470588 .752941176470588 .752941176470588 19 203 30 0 7 0 16 13 S7
4 20 201 3 0 236 230 10 0 0 0 0 0 0 0 0 0 0 0 0 0 0 0 0 0 84 9 200 i_sph_ext74 2
0 6 1 0 2 0 0 0 0 0 0 0 0 0 0 0 0 0 0 0 0 0 0 0 1 0 
