**ABCDEFGHIJKLMNOPQRSTUVWXYZabcdefghijklmnopqrstuvwxyz**************************
**PARASOLID !"#$%&'()*+,-./:;<=>?@[\]^_`{|}~0123456789**************************
**PART1;
MC=x86;
MC_MODEL=x86 Family 15 Model 2 Stepping 9, GenuineIntel;
MC_ID=unknown;
OS=Windows_NT;
OS_RELEASE=unknown;
FRU=Parasolid Version 15.1, build 242,  7- 8-2004;
APPL=SolidWorks 2005-2004231;
SITE=;
USER=unknown;
FORMAT=text;
GUISE=transmit;
KEY=sph_0344;
FILE=sph_0344.x_t;
DATE=Fri Jan 26 18:33:43 2007;
**PART2;
SCH=SCH_1501242_15102;
USFLD_SIZE=0;
**PART3;
**END_OF_HEADER*****************************************************************
T51 : TRANSMIT FILE created by modeller version 150124217 SCH_1100000_110040 10
 1 5 2 3 0 0 0 0 0 1e3 1e-8 0 0 0 1 0 1 4 81 1 2 5 5 1 0 0 0 0 0 70 3 0 1 0 0 4
 1 20 4 6 6 1 T11 4 3 0 1 7 8 1 9 0 0 0 12 7 59 10 11 0 0 0 0 1e3 1e-8 4 12 0 1
 0 1 1 13 14 15 0 16 17 0 100 8 4 4 0 0 1 0 0 0 1 0 0 0 1 0 0 0 1 0 ?11 9 1 0 1
 12 18 1 0 4 0 0 12 12 182 19 20 0 0 0 0 1e3 1e-8 9 21 7 1 0 1 1 22 23 24 25 26
 27 28 100 18 2 9 0 0 1 0 0 0 1 0 0 0 1 0 0 0 1 0 ?81 1 19 182 5 12 0 0 0 0 29 7
0 20 0 12 0 0 4 3 20 4 30 30 1 T13 22 90 0 12 0 31 0 0 32 0 50 23 89 0 31 33 0 0
 +0 0 -3 -1 0 0 0 0 1 30 24 85 0 34 35 0 0 +0 0 -3 0 0 1 29 25 23 0 28 36 0 0 1.
088 -3 19 26 24 0 12 32 0 37 V16 27 70 0 ?38 0 39 40 0 0 12 18 28 22 0 41 0 42 2
5 ?12 17 41 0 43 44 45 28 38 27 0 46 -18 42 20 0 47 28 48 36 ?12 17 47 0 49 50 5
1 42 52 39 0 53 -18 48 18 0 54 42 55 56 ?12 29 36 21 0 42 56 25 1.088 1.088 -3 2
9 56 19 0 48 57 36 1.088 0 -3 29 57 17 0 55 58 56 0 0 -3 18 55 16 0 59 48 60 57
 ?12 29 58 66 0 60 61 57 0 1.088 0 18 60 57 0 38 55 62 58 ?12 29 61 67 0 62 63 5
8 1.088 1.088 0 18 62 58 0 52 60 64 61 ?12 29 63 68 0 64 65 61 1.088 0 0 18 64 5
9 0 66 62 67 63 ?12 29 65 69 0 67 0 63 0 0 0 18 67 60 0 68 64 0 65 ?12 17 68 0 4
3 45 44 67 59 34 0 69 +15 43 80 0 45 31 0 17 45 0 43 41 68 60 70 71 0 72 -17 44
 0 43 68 41 55 46 73 0 0 +17 59 0 74 75 69 55 68 34 0 76 -16 34 73 0 ?68 77 78 2
4 0 0 12 17 69 0 74 59 66 67 79 80 0 70 -15 74 78 0 69 81 0 17 66 0 74 69 75 64
 54 77 0 82 +17 79 0 83 84 70 64 69 80 0 0 +16 80 49 0 ?79 85 71 86 0 0 12 17 70
 0 83 79 72 67 45 71 0 0 +15 83 40 0 70 87 0 17 72 0 83 70 84 60 51 88 0 0 +16 7
1 53 0 ?70 80 89 90 0 0 12 16 89 135 0 ?91 71 92 93 0 0 12 30 90 65 0 71 93 86 0
 +0 0 0 0 -1 0 31 93 152 0 89 94 90 0 +.544 .544 -3 0 0 1 1 0 0 .344 30 86 64 0
 80 90 95 0 +0 0 0 1 0 0 30 95 63 0 85 86 96 0 +1.088 0 0 0 1 0 16 85 45 0 ?84 8
8 80 95 0 0 12 30 96 62 0 88 95 97 0 +0 1.088 0 -1 0 0 16 88 41 0 ?72 73 85 96 0
 0 12 30 97 5 0 73 96 98 0 +0 0 -3 0 -1 0 16 73 4 0 ?44 99 88 97 0 0 12 30 98 8
 0 99 97 100 0 +0 0 -3 1 0 0 16 99 7 0 ?75 101 73 98 0 0 12 30 100 11 0 101 98 1
02 0 +1.088 0 -3 0 1 0 16 101 10 0 ?53 78 99 100 0 0 12 30 102 14 0 78 100 40 0
 +0 1.088 -3 -1 0 0 16 78 13 0 ?50 34 101 102 0 0 12 30 40 82 0 27 102 103 0 +0
 1.088 -3 0 0 1 30 103 83 0 39 40 35 0 +1.088 1.088 -3 0 0 1 16 39 71 0 ?52 27 7
7 103 0 0 12 30 35 84 0 77 103 24 0 +1.088 0 -3 0 0 1 16 77 72 0 ?66 39 34 35 0
 0 12 17 52 0 104 82 53 62 47 39 0 84 +15 104 76 0 82 105 0 17 82 0 104 54 52 64
 84 85 0 79 -17 53 0 104 52 54 42 106 101 0 107 +17 84 0 83 72 79 62 82 85 0 51
 +17 51 0 49 47 38 62 72 88 0 0 -15 49 74 0 51 108 0 17 38 0 49 51 50 60 41 27 0
 45 +17 50 0 49 38 47 28 107 78 0 0 +17 107 0 109 106 46 42 50 78 0 0 -15 109 3
 0 46 110 0 17 106 0 109 76 107 48 53 101 0 75 -17 46 0 109 107 76 28 44 73 0 50
 -17 76 0 109 46 106 55 75 99 0 44 -17 75 0 74 66 59 48 76 99 0 0 +14 110 1 111
 ?87 81 112 22 113 +0 0 87 81 37 81 1 111 179 114 110 115 0 116 117 118 14 87 39
 117 ?119 110 120 22 121 -0 0 119 110 37 14 81 79 116 ?110 105 74 22 33 +0 0 110
 105 37 15 112 130 0 91 110 109 50 113 2 0 110 121 122 0 +0 1.088 -3 0 0 -1 -1 0
 0 13 37 25 0 0 0 0 0 0 26 31 14 31 81 123 ?108 0 43 22 23 +0 0 108 0 37 81 1 12
3 175 114 31 124 0 0 125 126 14 108 75 125 ?105 31 49 22 122 +0 0 105 31 37 81 1
 125 176 114 108 127 0 123 128 129 14 105 77 128 ?81 108 104 22 130 +0 0 81 108
 37 50 122 86 0 108 113 130 0 +0 1.088 -3 0 1 0 0 0 1 50 130 87 0 105 122 33 0 +
1.088 0 -3 1 0 0 0 0 -1 50 33 88 0 81 130 23 0 +0 0 -3 0 -1 0 0 0 -1 81 1 128 17
7 114 105 131 0 125 116 132 80 1 114 0 133 8001 0 0 0 0 3 5 0 0 FFFFTFTFFFFFFF2
 81 1 131 171 134 105 0 128 127 135 136 81 1 116 178 114 81 137 0 128 111 138 83
 3 132 .752941176470588 .752941176470588 .752941176470588 81 1 137 165 134 81 0
 116 139 124 140 83 3 138 .752941176470588 .752941176470588 .752941176470588 80
 1 134 141 142 9000 1 1 1 1 1 1 1 1 FFFFTFTFFFFFFF1 81 1 139 163 134 87 0 117 11
5 137 143 81 1 124 167 134 31 0 123 137 127 144 82 1 140 741540203 81 1 127 169
 134 108 0 125 124 131 145 82 1 144 741671275 82 1 145 741278059 81 1 117 180 11
4 87 139 0 111 146 147 81 1 115 161 134 110 0 111 0 139 148 82 1 143 738197868 8
2 1 148 734724460 81 1 146 181 114 119 135 0 117 0 149 83 3 147 .752941176470588
 .752941176470588 .752941176470588 14 119 137 146 ?0 87 150 22 151 -0 0 0 87 37
 81 1 135 173 134 119 0 146 131 0 152 83 3 149 .752941176470588 .752941176470588
 .752941176470588 82 1 152 748290412 15 150 139 0 153 119 154 51 151 149 0 119 0
 121 0 +.544 .544 -3 0 0 1 .344 1 0 0 50 121 61 0 87 151 113 0 +0 1.088 0 0 0 -1
 -1 0 0 17 153 0 150 153 153 0 91 89 0 0 -15 154 140 0 155 119 0 17 155 0 154 15
5 155 0 156 92 0 0 +17 156 0 120 156 156 0 155 92 0 0 -16 92 136 0 ?155 89 0 94
 0 0 12 31 94 153 0 92 0 93 0 +.544 .544 0 0 0 1 1 0 0 .344 15 120 123 0 156 87
 83 17 91 0 112 91 91 0 153 89 0 0 +79 14 142 SWEntUnchanged82 1 136 741409131 7
9 15 133 SDL/TYSA_COLOUR83 3 129 .752941176470588 .752941176470588 .752941176470
588 83 3 126 .752941176470588 .752941176470588 .752941176470588 83 3 118 .752941
176470588 .752941176470588 .752941176470588 17 54 0 104 53 82 48 66 77 0 106 -19
 32 91 0 12 0 26 22 S74 20 30 3 0 135 146 19 0 0 0 0 0 0 0 0 0 0 0 0 0 0 0 0 0 8
0 1 5 157 158 8017 0 0 0 0 0 0 0 0 TTTTTTTTTTTTTF3 84 9 29 box2D_sph79 13 158 SD
L/TYSA_NAME81 1 10 59 5 7 0 0 0 0 159 70 11 0 7 0 0 4 3 20 4 160 160 1 T13 13 29
 0 7 0 161 0 0 162 0 51 14 28 0 161 163 0 0 +.544 .544 -3 0 0 1 .344 1 0 0 31 15
 5 0 17 164 0 0 +.544 .544 -3 0 0 1 1 0 0 .344 19 16 7 0 7 162 0 165 V16 17 4 0
 ?166 0 167 15 0 0 7 17 166 0 168 166 166 0 169 17 0 0 +16 167 18 0 ?170 17 0 16
4 0 0 7 17 170 0 171 170 170 0 172 167 0 0 +31 164 23 0 167 0 15 0 +.544 .544 0
 0 0 1 1 0 0 .344 15 171 17 0 170 173 0 17 172 0 174 172 172 0 170 167 0 0 -15 1
74 26 0 172 161 0 14 161 25 175 ?176 0 168 13 14 +0 0 176 0 165 81 1 175 56 114
 161 177 0 0 178 179 14 176 1 178 ?173 161 180 13 163 -0 0 173 161 165 15 168 24
 0 166 161 174 13 165 8 0 0 0 0 0 0 16 161 81 1 178 57 114 176 181 0 175 182 183
 14 173 16 182 ?0 176 171 13 184 +0 0 0 176 165 15 180 3 0 169 176 0 50 163 2 0
 176 184 14 0 +.544 .544 -3 0 0 1 1 0 0 50 184 22 0 173 0 163 0 +.544 .544 0 0 0
 1 1 0 0 17 169 0 180 169 169 0 166 17 0 0 -81 1 182 58 114 173 185 0 178 0 186
 81 1 185 54 134 173 0 182 181 0 187 83 3 186 .752941176470588 .752941176470588
 .752941176470588 81 1 181 52 134 176 0 178 177 185 188 82 1 187 216007042 81 1
 177 50 134 161 0 175 0 181 189 82 1 188 214565250 82 1 189 216531330 83 3 183 .
752941176470588 .752941176470588 .752941176470588 83 3 179 .752941176470588 .752
941176470588 .752941176470588 19 162 30 0 7 0 16 13 S74 20 160 3 0 185 182 10 0
 0 0 0 0 0 0 0 0 0 0 0 0 0 0 0 0 84 3 159 sph74 20 6 1 0 2 0 0 0 0 0 0 0 0 0 0 0
 0 0 0 0 0 0 0 0 1 0 
