**ABCDEFGHIJKLMNOPQRSTUVWXYZabcdefghijklmnopqrstuvwxyz**************************
**PARASOLID !"#$%&'()*+,-./:;<=>?@[\]^_`{|}~0123456789**************************
**PART1;
MC=x86;
MC_MODEL=x86 Family 15 Model 2 Stepping 9, GenuineIntel;
MC_ID=unknown;
OS=Windows_NT;
OS_RELEASE=unknown;
FRU=Parasolid Version 15.0, build 235,  1-28-2004;
APPL=SolidWorks 2004-2004073;
SITE=;
USER=unknown;
FORMAT=text;
GUISE=transmit;
KEY=sph_02;
FILE=sph_02.x_t;
DATE=Sat Nov 05 08:55:57 2005;
**PART2;
SCH=SCH_1500235_15003;
USFLD_SIZE=0;
**PART3;
**END_OF_HEADER*****************************************************************
T51 : TRANSMIT FILE created by modeller version 150023517 SCH_1100000_110040 10
 1 5 2 3 0 0 0 0 0 1e3 1e-8 0 0 0 1 0 1 4 81 1 2 5 5 1 0 0 0 0 0 70 3 0 1 0 0 4
 1 20 4 6 6 1 T11 4 3 0 1 7 8 1 9 0 0 0 12 7 62 10 11 0 0 0 0 1e3 1e-8 4 12 0 1
 0 1 1 13 14 15 0 16 17 0 100 8 4 4 0 0 1 0 0 0 1 0 0 0 1 0 0 0 1 0 ?11 9 1 0 1
 12 18 1 0 4 0 0 12 12 188 19 20 0 0 0 0 1e3 1e-8 9 0 7 1 0 1 1 21 22 23 24 25 2
6 27 100 18 2 9 0 0 1 0 0 0 1 0 0 0 1 0 0 0 1 0 ?81 1 19 188 5 12 0 0 0 0 28 70
 20 0 12 0 0 4 3 20 4 29 29 1 T13 21 90 0 12 0 30 0 0 31 0 50 22 89 0 30 32 0 0
 +0 0 -3 -1 0 0 0 0 1 30 23 85 0 33 34 0 0 +0 0 -3 0 0 1 29 24 23 0 27 35 0 0 1
 -3 19 25 24 0 12 31 0 36 V16 26 70 0 ?37 0 38 39 0 0 12 18 27 22 0 40 0 41 24 ?
12 17 40 0 42 43 44 27 37 26 0 45 -18 41 20 0 46 27 47 35 ?12 17 46 0 48 49 50 4
1 51 38 0 52 -18 47 18 0 53 41 54 55 ?12 29 35 21 0 41 55 24 1 1 -3 29 55 19 0 4
7 56 35 1 0 -3 29 56 17 0 54 57 55 0 0 -3 18 54 16 0 58 47 59 56 ?12 29 57 66 0
 59 60 56 0 1 0 18 59 57 0 37 54 61 57 ?12 29 60 67 0 61 62 57 1 1 0 18 61 58 0
 51 59 63 60 ?12 29 62 68 0 63 64 60 1 0 0 18 63 59 0 65 61 66 62 ?12 29 64 69 0
 66 0 62 0 0 0 18 66 60 0 67 63 0 64 ?12 17 67 0 42 44 43 66 58 33 0 68 +15 42 8
0 0 44 30 0 17 44 0 42 40 67 59 69 70 0 71 -17 43 0 42 67 40 54 45 72 0 0 +17 58
 0 73 74 68 54 67 33 0 75 -16 33 73 0 ?67 76 77 23 0 0 12 17 68 0 73 58 65 66 78
 79 0 69 -15 73 78 0 68 80 0 17 65 0 73 68 74 63 53 76 0 81 +17 78 0 82 83 69 63
 68 79 0 0 +16 79 49 0 ?78 84 70 85 0 0 12 17 69 0 82 78 71 66 44 70 0 0 +15 82
 40 0 69 86 0 17 71 0 82 69 83 59 50 87 0 0 +16 70 53 0 ?69 79 88 89 0 0 12 16 8
8 116 0 ?90 70 91 92 0 0 12 30 89 65 0 70 92 85 0 +0 0 0 0 -1 0 32 92 138 0 88 9
3 89 94 +.5 .5 -3 0 0 1 -1 1665334536937735e-30 0 .2 .2 30 85 64 0 79 89 95 0 +0
 0 0 1 0 0 30 95 63 0 84 85 96 0 +1 0 0 0 1 0 16 84 45 0 ?83 87 79 95 0 0 12 30
 96 62 0 87 95 97 0 +0 1 0 -1 0 0 16 87 41 0 ?71 72 84 96 0 0 12 30 97 5 0 72 96
 98 0 +0 0 -3 0 -1 0 16 72 4 0 ?43 99 87 97 0 0 12 30 98 8 0 99 97 100 0 +0 0 -3
 1 0 0 16 99 7 0 ?74 101 72 98 0 0 12 30 100 11 0 101 98 102 0 +1 0 -3 0 1 0 16
 101 10 0 ?52 77 99 100 0 0 12 30 102 14 0 77 100 39 0 +0 1 -3 -1 0 0 16 77 13 0
 ?49 33 101 102 0 0 12 30 39 82 0 26 102 103 0 +0 1 -3 0 0 1 30 103 83 0 38 39 3
4 0 +1 1 -3 0 0 1 16 38 71 0 ?51 26 76 103 0 0 12 30 34 84 0 76 103 23 0 +1 0 -3
 0 0 1 16 76 72 0 ?65 38 33 34 0 0 12 17 51 0 104 81 52 61 46 38 0 83 +15 104 76
 0 81 105 0 17 81 0 104 53 51 63 83 84 0 78 -17 52 0 104 51 53 41 106 101 0 107
 +17 83 0 82 71 78 61 81 84 0 50 +17 50 0 48 46 37 61 71 87 0 0 -15 48 74 0 50 1
08 0 17 37 0 48 50 49 59 40 26 0 44 +17 49 0 48 37 46 27 107 77 0 0 +17 107 0 10
9 106 45 41 49 77 0 0 -15 109 3 0 45 110 0 17 106 0 109 75 107 47 52 101 0 74 -1
7 45 0 109 107 75 27 43 72 0 49 -17 75 0 109 45 106 54 74 99 0 43 -17 74 0 73 65
 58 47 75 99 0 0 +14 110 1 111 ?86 80 112 21 113 +0 0 86 80 36 81 1 111 185 114
 110 115 0 116 117 118 14 86 39 117 ?119 110 120 21 121 -0 0 119 110 36 14 80 79
 116 ?110 105 73 21 32 +0 0 110 105 36 15 112 111 0 90 110 109 50 113 2 0 110 12
1 122 0 +0 1 -3 0 0 -1 -1 0 0 13 36 25 0 0 0 0 0 0 25 30 14 30 81 123 ?108 0 42
 21 22 +0 0 108 0 36 81 1 123 181 114 30 124 0 0 125 126 14 108 75 125 ?105 30 4
8 21 122 +0 0 105 30 36 81 1 125 182 114 108 127 0 123 128 129 14 105 77 128 ?80
 108 104 21 130 +0 0 80 108 36 50 122 86 0 108 113 130 0 +0 1 -3 0 1 0 0 0 1 50
 130 87 0 105 122 32 0 +1 0 -3 1 0 0 0 0 -1 50 32 88 0 80 130 22 0 +0 0 -3 0 -1
 0 0 0 -1 81 1 128 183 114 105 131 0 125 116 132 80 1 114 0 133 8001 0 0 0 0 3 5
 0 0 FFFFTFTFFFFFFF2 81 1 131 177 134 105 0 128 127 135 136 81 1 116 184 114 80
 137 0 128 111 138 83 3 132 .752941176470588 .752941176470588 .752941176470588 8
1 1 137 171 134 80 0 116 139 124 140 83 3 138 .752941176470588 .752941176470588
 .752941176470588 80 1 134 141 142 9000 1 1 1 1 1 1 1 1 FFFFTFTFFFFFFF1 81 1 139
 169 134 86 0 117 115 137 143 81 1 124 173 134 30 0 123 137 127 144 82 1 140 917
759 81 1 127 175 134 108 0 125 124 131 145 82 1 144 917759 82 1 145 917759 81 1
 117 186 114 86 139 0 111 146 147 81 1 115 167 134 110 0 111 0 139 148 82 1 143
 917759 82 1 148 917759 81 1 146 187 114 119 135 0 117 0 149 83 3 147 .752941176
470588 .752941176470588 .752941176470588 14 119 122 146 ?0 86 150 21 151 -0 0 0
 86 36 81 1 135 179 134 119 0 146 131 0 152 83 3 149 .752941176470588 .752941176
470588 .752941176470588 82 1 152 917759 15 150 125 0 153 119 154 67 151 135 0 11
9 0 121 0 +92 0 0 1 .2 50 121 61 0 86 151 113 0 +0 1 0 0 0 -1 -1 0 0 17 153 0 15
0 153 153 0 90 88 0 0 -15 154 126 0 155 119 0 17 155 0 154 155 155 0 156 91 0 0
 +17 156 0 120 156 156 0 155 91 0 0 -16 91 119 0 ?155 88 0 93 0 0 12 32 93 139 0
 91 0 92 0 +.5 .5 0 0 0 1 -1 1665334536937735e-30 0 .2 .2 15 120 104 0 156 86 82
 17 90 0 112 90 90 0 153 88 0 0 +79 14 142 SWEntUnchanged82 1 136 917759 79 15 1
33 SDL/TYSA_COLOUR83 3 129 .752941176470588 .752941176470588 .752941176470588 83
 3 126 .752941176470588 .752941176470588 .752941176470588 83 3 118 .752941176470
588 .752941176470588 .752941176470588 17 53 0 104 52 81 47 65 76 0 106 -141 94 1
51 94 94 92 19 31 91 0 12 0 25 21 S74 20 29 3 0 135 146 19 0 0 0 0 0 0 0 0 0 0 0
 0 0 0 0 0 0 80 1 5 157 158 8017 0 0 0 0 0 0 0 0 TTTTTTTTTTTTTF3 84 13 28 box2D_
ellipse79 13 158 SDL/TYSA_NAME81 1 10 62 5 7 0 0 0 0 159 70 11 0 7 0 0 4 3 20 4
 160 160 1 T13 13 29 0 7 0 161 0 0 162 0 67 14 28 0 161 163 0 0 +15 0 0 1 ?32 15
 5 0 17 164 0 165 +.5 .5 -3 0 0 1 -1 555111512312578e-30 0 .2 .2 19 16 7 0 7 162
 0 166 V16 17 4 0 ?167 0 168 15 0 0 7 17 167 0 169 167 167 0 170 17 0 0 +16 168
 18 0 ?171 17 0 164 0 0 7 17 171 0 172 171 171 0 173 168 0 0 +32 164 23 0 168 0
 15 0 +.5 .5 0 0 0 1 -1 555111512312578e-30 0 .2 .2 15 172 17 0 171 174 0 17 173
 0 175 173 173 0 171 168 0 0 -15 175 26 0 173 161 0 14 161 25 176 ?177 0 169 13
 14 +0 0 177 0 166 81 1 176 59 114 161 178 0 0 179 180 14 177 1 179 ?174 161 181
 13 163 -0 0 174 161 166 15 169 24 0 167 161 175 13 166 8 0 0 0 0 0 0 16 161 81
 1 179 60 114 177 182 0 176 183 184 14 174 16 183 ?0 177 172 13 185 +0 0 0 177 1
66 15 181 3 0 170 177 0 50 163 2 0 177 185 14 0 +.5 .5 -3 0 0 1 1 0 0 50 185 22
 0 174 0 163 0 +.5 .5 0 0 0 1 1 0 0 17 170 0 181 170 170 0 167 17 0 0 -81 1 183
 61 114 174 186 0 179 0 187 81 1 186 57 134 174 0 183 182 0 188 83 3 187 .752941
176470588 .752941176470588 .752941176470588 81 1 182 55 134 177 0 179 178 186 18
9 82 1 188 6357253 81 1 178 53 134 161 0 176 0 182 190 82 1 189 6357253 82 1 190
 6357253 83 3 184 .752941176470588 .752941176470588 .752941176470588 83 3 180 .7
52941176470588 .752941176470588 .752941176470588 19 162 30 0 7 0 16 13 S141 165
 14 165 165 15 74 20 160 3 0 186 183 10 0 0 0 0 0 0 0 0 0 0 0 0 0 0 0 0 0 84 7 1
59 ellipse74 20 6 1 0 2 0 0 0 0 0 0 0 0 0 0 0 0 0 0 0 0 0 0 0 1 0 
