**ABCDEFGHIJKLMNOPQRSTUVWXYZabcdefghijklmnopqrstuvwxyz**************************
**PARASOLID !"#$%&'()*+,-./:;<=>?@[\]^_`{|}~0123456789**************************
**PART1;
MC=x86;
MC_MODEL=x86 Family 15 Model 2 Stepping 9, GenuineIntel;
MC_ID=unknown;
OS=Windows_NT;
OS_RELEASE=unknown;
FRU=Parasolid Version 13.0, build 242, 11-21-2001;
APPL=SolidWorks 2001Plus-2001340;
SITE=;
USER=unknown;
FORMAT=text;
GUISE=transmit;
KEY=UnitBox;
FILE=UnitBox.x_t;
DATE=Mon Oct 10 14:55:16 2005;
**PART2;
SCH=SCH_1300242_13006;
USFLD_SIZE=0;
**PART3;
**END_OF_HEADER*****************************************************************
T51 : TRANSMIT FILE created by modeller version 130024217 SCH_1100000_110040 12
 1 125 0 2 0 0 0 0 1e3 1e-8 0 3 0 1 0 1 1 4 5 6 7 8 9 10 70 2 0 1 0 0 4 1 20 4 1
1 11 1 T13 4 90 0 1 0 12 0 0 13 0 50 5 89 0 12 14 0 0 +0 0 -1 -1 0 0 0 0 1 30 6
 85 0 15 16 0 0 +0 0 -1 0 0 1 29 7 23 0 10 17 0 0 1 -1 19 8 24 0 1 13 0 18 V16 9
 70 0 ?19 0 20 21 0 0 1 18 10 22 0 22 0 23 7 ?1 17 22 0 24 25 26 10 19 9 0 27 -1
8 23 20 0 28 10 29 17 ?1 17 28 0 30 31 32 23 33 20 0 34 -18 29 18 0 35 23 36 37
 ?1 29 17 21 0 23 37 7 1 1 -1 29 37 19 0 29 38 17 1 0 -1 29 38 17 0 36 39 37 0 0
 -1 18 36 16 0 40 29 41 38 ?1 29 39 66 0 41 42 38 0 1 0 18 41 57 0 19 36 43 39 ?
1 29 42 67 0 43 44 39 1 1 0 18 43 58 0 33 41 45 42 ?1 29 44 68 0 45 46 42 1 0 0
 18 45 59 0 47 43 48 44 ?1 29 46 69 0 48 0 44 0 0 0 18 48 60 0 49 45 0 46 ?1 17
 49 0 24 26 25 48 40 15 0 50 +15 24 80 0 26 12 0 17 26 0 24 22 49 41 51 52 0 53
 -17 25 0 24 49 22 36 27 54 0 0 +17 40 0 55 56 50 36 49 15 0 57 -16 15 73 0 ?49
 58 59 6 0 0 1 17 50 0 55 40 47 48 60 61 0 51 -15 55 78 0 50 62 0 17 47 0 55 50
 56 45 35 58 0 63 +17 60 0 64 65 51 45 50 61 0 0 +16 61 49 0 ?60 66 52 67 0 0 1
 17 51 0 64 60 53 48 26 52 0 0 +15 64 40 0 51 68 0 17 53 0 64 51 65 41 32 69 0 0
 +16 52 53 0 ?51 61 0 70 0 0 1 30 70 65 0 52 0 67 0 +0 0 0 0 -1 0 30 67 64 0 61
 70 71 0 +0 0 0 1 0 0 30 71 63 0 66 67 72 0 +1 0 0 0 1 0 16 66 45 0 ?65 69 61 71
 0 0 1 30 72 62 0 69 71 73 0 +0 1 0 -1 0 0 16 69 41 0 ?53 54 66 72 0 0 1 30 73 5
 0 54 72 74 0 +0 0 -1 0 -1 0 16 54 4 0 ?25 75 69 73 0 0 1 30 74 8 0 75 73 76 0 +
0 0 -1 1 0 0 16 75 7 0 ?56 77 54 74 0 0 1 30 76 11 0 77 74 78 0 +1 0 -1 0 1 0 16
 77 10 0 ?34 59 75 76 0 0 1 30 78 14 0 59 76 21 0 +0 1 -1 -1 0 0 16 59 13 0 ?31
 15 77 78 0 0 1 30 21 82 0 9 78 79 0 +0 1 -1 0 0 1 30 79 83 0 20 21 16 0 +1 1 -1
 0 0 1 16 20 71 0 ?33 9 58 79 0 0 1 30 16 84 0 58 79 6 0 +1 0 -1 0 0 1 16 58 72
 0 ?47 20 15 16 0 0 1 17 33 0 80 63 34 43 28 20 0 65 +15 80 76 0 63 81 0 17 63 0
 80 35 33 45 65 66 0 60 -17 34 0 80 33 35 23 82 77 0 83 +17 65 0 64 53 60 43 63
 66 0 32 +17 32 0 30 28 19 43 53 69 0 0 -15 30 74 0 32 84 0 17 19 0 30 32 31 41
 22 9 0 26 +17 31 0 30 19 28 10 83 59 0 0 +17 83 0 85 82 27 23 31 59 0 0 -15 85
 3 0 27 86 0 17 82 0 85 57 83 29 34 77 0 56 -17 27 0 85 83 57 10 25 54 0 31 -17
 57 0 85 27 82 36 56 75 0 25 -17 56 0 55 47 40 29 57 75 0 0 +14 86 1 87 ?68 62 8
5 4 88 +0 0 68 62 18 81 1 87 118 89 86 0 0 90 91 92 14 68 39 91 ?0 86 64 4 93 -0
 0 0 86 18 14 62 79 90 ?86 81 55 4 14 +0 0 86 81 18 50 88 2 0 86 93 94 0 +0 1 -1
 0 0 -1 -1 0 0 13 18 25 0 0 0 0 0 0 8 12 14 12 81 95 ?84 0 24 4 5 +0 0 84 0 18 8
1 1 95 114 89 12 0 0 0 96 97 14 84 75 96 ?81 12 30 4 94 +0 0 81 12 18 81 1 96 11
5 89 84 0 0 95 98 99 14 81 77 98 ?62 84 80 4 100 +0 0 62 84 18 50 94 86 0 84 88
 100 0 +0 1 -1 0 1 0 0 0 1 50 100 87 0 81 94 14 0 +1 0 -1 1 0 0 0 0 -1 50 14 88
 0 62 100 5 0 +0 0 -1 0 -1 0 0 0 -1 81 1 98 116 89 81 0 0 96 90 101 80 1 89 0 10
2 8001 0 0 0 0 3 5 0 0 FFFFTFTFFFFFFF2 81 1 90 117 89 62 0 0 98 87 103 83 3 101
 .941176470588235 .674509803921569 .1176470588235294 83 3 103 .941176470588235 .
674509803921569 .1176470588235294 79 15 102 SDL/TYSA_COLOUR83 3 99 .941176470588
235 .674509803921569 .1176470588235294 83 3 97 .941176470588235 .674509803921569
 .1176470588235294 50 93 61 0 68 0 88 0 +0 1 0 0 0 -1 -1 0 0 81 1 91 119 89 68 0
 0 87 0 104 83 3 104 .941176470588235 .674509803921569 .1176470588235294 83 3 92
 .941176470588235 .674509803921569 .1176470588235294 17 35 0 80 34 63 29 47 58 0
 82 -19 13 91 0 1 0 8 4 S74 20 11 1 0 91 0 0 0 0 0 0 0 0 0 0 0 0 0 0 0 0 0 0 0 1
 0 
