**ABCDEFGHIJKLMNOPQRSTUVWXYZabcdefghijklmnopqrstuvwxyz**************************
**PARASOLID !"#$%&'()*+,-./:;<=>?@[\]^_`{|}~0123456789**************************
**PART1;
MC=x86;
MC_MODEL=x86 Family 15 Model 2 Stepping 9, GenuineIntel;
MC_ID=unknown;
OS=Windows_NT;
OS_RELEASE=unknown;
FRU=Parasolid Version 15.0, build 235,  1-28-2004;
APPL=SolidWorks 2004-2004073;
SITE=;
USER=unknown;
FORMAT=text;
GUISE=transmit;
KEY=box3d_sph25;
FILE=box3d_sph25.x_t;
DATE=Sat Jan 21 08:20:42 2006;
**PART2;
SCH=SCH_1500235_15003;
USFLD_SIZE=0;
**PART3;
**END_OF_HEADER*****************************************************************
T51 : TRANSMIT FILE created by modeller version 150023517 SCH_1100000_110040 10
 1 5 2 3 0 0 0 0 0 1e3 1e-8 0 0 0 1 0 1 4 81 1 2 5 5 1 0 0 0 0 0 70 3 0 1 0 0 4
 1 20 4 6 6 1 T11 4 3 0 1 7 8 1 9 0 0 0 12 7 49 10 11 0 0 0 0 1e3 1e-8 4 12 0 1
 0 1 1 13 14 15 16 17 0 18 100 8 4 4 0 0 1 0 0 0 1 0 0 0 1 .5 .5 .5 1 1 ?11 9 1
 0 1 12 19 1 0 4 0 0 12 12 163 20 21 0 0 0 0 1e3 1e-8 9 22 7 1 0 1 1 23 24 25 26
 27 28 29 100 19 2 9 0 0 1 0 0 0 1 0 0 0 1 0 0 0 1 0 ?81 1 20 163 5 12 0 0 0 0 3
0 70 21 0 12 0 0 4 3 20 4 31 31 1 T13 23 90 0 12 32 33 0 0 34 0 50 24 89 0 33 35
 0 0 +0 1 1 1 0 0 0 0 -1 30 25 85 0 28 36 0 0 +0 0 1 0 0 -1 29 26 23 0 29 37 0 0
 1 1 19 27 24 0 12 34 0 38 V16 28 73 0 ?39 0 40 25 0 0 12 18 29 22 0 41 0 42 26
 ?12 17 41 0 43 44 45 29 46 47 0 48 +18 42 20 0 45 29 49 37 ?12 17 45 0 43 41 50
 42 51 52 0 53 +18 49 18 0 50 42 54 55 ?12 29 37 21 0 42 55 26 1 1 1 29 55 19 0
 49 56 37 1 0 1 29 56 17 0 54 57 55 0 0 1 18 54 16 0 58 49 59 56 ?12 29 57 66 0
 59 60 56 0 1 0 18 59 57 0 61 54 62 57 ?12 29 60 67 0 62 63 57 1 1 0 18 62 58 0
 64 59 65 60 ?12 29 63 68 0 65 66 60 1 0 0 18 65 59 0 67 62 68 63 ?12 29 66 69 0
 68 69 63 0 0 0 18 68 60 0 70 65 71 66 ?12 29 69 136 0 71 72 66 .75 .5 .5 18 71
 126 0 73 68 74 69 ?12 29 72 137 0 74 0 69 .25 .5 .5 18 74 125 0 75 71 0 72 ?12
 17 75 0 76 75 75 74 0 0 0 0 ?15 76 129 0 75 77 78 14 77 127 79 ?0 0 76 32 80 +0
 0 0 0 81 15 78 130 0 73 77 0 17 73 0 78 73 73 71 0 0 0 0 ?81 1 79 162 82 77 83
 0 84 0 85 13 32 123 0 12 0 77 0 0 34 0 68 80 134 0 77 0 86 0 +87 -1.5 .5 .5 -1
 0 0 .75 .5 .5 .25 .5 .5 3.141592653589795 6.28318530717959 1836970198727605e-31
 1 0 0 13 81 132 0 0 0 0 0 0 88 77 19 88 131 0 12 0 34 81 V19 34 91 0 12 88 27 2
3 S50 86 61 0 89 80 90 0 +0 0 0 0 0 1 1 0 0 32 87 135 0 12 0 91 92 +.5 .5 .5 0 0
 1 -1 657664683484807e-42 0 .25 .25 30 91 65 0 93 87 94 0 +0 1 0 0 -1 0 141 92 8
0 92 92 87 16 93 53 0 ?95 96 0 91 0 0 12 30 94 64 0 96 91 97 0 +0 0 0 1 0 0 16 9
6 49 0 ?67 98 93 94 0 0 12 30 97 63 0 98 94 99 0 +1 0 0 0 1 0 16 98 45 0 ?64 100
 96 97 0 0 12 30 99 62 0 100 97 101 0 +1 1 0 -1 0 0 16 100 41 0 ?61 102 98 99 0
 0 12 30 101 5 0 102 99 103 0 +0 1 1 0 -1 0 16 102 4 0 ?44 104 100 101 0 0 12 30
 103 8 0 104 101 105 0 +0 0 1 1 0 0 16 104 7 0 ?50 52 102 103 0 0 12 30 105 11 0
 52 103 106 0 +1 0 1 0 1 0 16 52 10 0 ?45 47 104 105 0 0 12 30 106 14 0 47 105 1
07 0 +1 1 1 -1 0 0 16 47 13 0 ?41 108 52 106 0 0 12 30 107 82 0 108 106 109 0 +0
 1 1 0 0 -1 16 108 70 0 ?110 111 47 107 0 0 12 30 109 83 0 111 107 36 0 +1 1 1 0
 0 -1 16 111 71 0 ?112 40 108 109 0 0 12 30 36 84 0 40 109 25 0 +1 0 1 0 0 -1 16
 40 72 0 ?113 28 111 36 0 0 12 17 113 0 114 64 51 65 115 40 0 116 +15 114 76 0 6
4 117 0 17 64 0 114 53 113 62 116 98 0 112 +17 51 0 114 113 53 49 45 52 0 0 -17
 115 0 118 58 67 49 113 40 0 51 -17 116 0 119 70 120 65 64 98 0 0 -15 119 40 0 1
21 89 0 17 70 0 119 121 116 68 67 96 0 39 -17 120 0 119 116 121 62 61 100 0 0 -1
7 121 0 119 120 70 59 95 93 0 0 -17 61 0 122 48 112 59 120 100 0 110 +15 122 74
 0 61 123 0 17 48 0 122 46 61 29 110 108 0 124 -17 112 0 122 61 46 62 53 111 0 1
20 +17 110 0 125 95 124 59 48 108 0 121 +15 125 80 0 95 33 0 17 95 0 125 126 110
 68 121 93 0 0 +17 124 0 125 110 126 29 44 102 0 0 -17 126 0 125 124 95 54 39 28
 0 0 -17 44 0 43 50 41 54 124 102 0 126 +15 43 3 0 44 127 0 17 50 0 43 45 44 49
 58 104 0 115 +17 58 0 118 39 115 54 50 104 0 44 -15 118 78 0 67 128 0 17 39 0 1
18 67 58 68 126 28 0 95 +17 67 0 118 115 39 65 70 96 0 113 +14 128 79 129 ?117 3
3 118 23 35 -0 0 117 33 38 81 1 129 157 82 128 130 0 131 132 133 14 117 77 132 ?
123 128 114 23 134 -0 0 123 128 38 14 33 81 131 ?128 0 125 23 24 -0 0 128 0 38 5
0 35 88 0 128 134 24 0 +0 0 1 0 1 0 0 0 1 13 38 25 0 0 0 0 0 0 27 33 50 134 87 0
 117 135 35 0 +1 0 1 -1 0 0 0 0 1 50 135 86 0 123 90 134 0 +1 1 1 0 -1 0 0 0 -1
 14 123 75 136 ?127 117 122 23 135 -0 0 127 117 38 50 90 2 0 127 86 135 0 +0 0 1
 0 0 1 1 0 0 14 127 1 137 ?89 123 43 23 90 +0 0 89 123 38 81 1 137 160 82 127 13
8 0 136 84 139 14 89 39 84 ?0 127 119 23 86 -0 0 0 127 38 81 1 84 161 82 89 140
 0 137 79 141 80 1 82 0 142 8001 0 0 0 0 3 5 0 0 FFFFTFTFFFFFFF2 81 1 140 154 14
3 89 0 84 138 0 144 83 3 141 .752941176470588 .752941176470588 .752941176470588
 80 1 143 145 146 9000 1 1 1 1 1 1 1 1 FFFFTFTFFFFFFF1 81 1 138 152 143 127 0 13
7 147 140 148 82 1 144 1048738 81 1 147 150 143 123 0 136 149 138 150 82 1 148 1
048738 81 1 136 159 82 123 147 0 132 137 151 81 1 149 148 143 33 0 131 152 147 1
53 82 1 150 1048738 81 1 131 156 82 33 149 0 0 129 154 81 1 152 146 143 117 0 13
2 130 149 155 82 1 153 1048738 81 1 132 158 82 117 152 0 129 136 156 81 1 130 14
4 143 128 0 129 83 152 157 82 1 155 1048738 81 1 83 142 143 77 0 79 0 130 158 82
 1 157 1048738 82 1 158 2687077 83 3 156 .752941176470588 .752941176470588 .7529
41176470588 83 3 154 .752941176470588 .752941176470588 .752941176470588 83 3 151
 .752941176470588 .752941176470588 .752941176470588 79 14 146 SWEntUnchanged79 1
5 142 SDL/TYSA_COLOUR83 3 139 .752941176470588 .752941176470588 .752941176470588
 83 3 133 .752941176470588 .752941176470588 .752941176470588 17 46 0 122 112 48
 42 41 47 0 0 -17 53 0 114 51 64 42 112 111 0 46 -83 3 85 .752941176470588 .7529
41176470588 .752941176470588 74 20 31 3 0 140 79 20 0 0 0 0 0 0 0 0 0 0 0 0 0 0
 0 0 0 80 1 5 159 160 8017 0 0 0 0 0 0 0 0 TTTTTTTTTTTTTF3 84 5 30 box3d79 13 16
0 SDL/TYSA_NAME81 1 10 49 5 7 0 0 0 0 161 70 11 0 7 0 0 4 3 20 4 162 162 1 T13 1
3 15 0 7 0 163 0 0 164 0 68 14 32 0 163 0 0 0 +15 -2 0 0 -1 0 0 .25 -30616169978
84825e-32 0 -.25 164416170871202e-42 0 3.141592653589795 6.28318530717959 183697
0198727605e-31 1 0 0 32 15 5 0 7 0 0 165 +0 0 0 0 0 1 -1 657664683484807e-42 0 .
25 .25 29 16 13 0 18 166 0 .25 1644559171992515e-43 0 19 17 19 0 7 164 0 167 V18
 18 12 0 168 0 169 16 ?7 17 168 0 170 168 168 18 0 0 0 0 ?18 169 10 0 171 18 0 1
66 ?7 17 171 0 172 171 171 169 0 0 0 0 ?29 166 11 0 169 0 16 -.25 48984254153010
7e-31 0 15 172 35 0 171 163 170 14 163 29 173 ?0 0 172 13 14 -0 0 0 0 167 15 170
 28 0 168 163 0 81 1 173 48 82 163 174 0 0 0 175 13 167 18 0 0 0 0 0 0 17 163 81
 1 174 46 143 163 0 173 0 0 176 83 3 175 .752941176470588 .752941176470588 .7529
41176470588 82 1 176 1114261 19 164 14 0 7 0 17 13 S141 165 14 165 165 15 74 20
 162 3 0 174 173 10 0 0 0 0 0 0 0 0 0 0 0 0 0 0 0 0 0 84 7 161 sphere274 20 6 1
 0 2 0 0 0 0 0 0 0 0 0 0 0 0 0 0 0 0 0 0 0 1 0 
